<svg xmlns="http://www.w3.org/2000/svg" xmlns:svg="http://www.w3.org/2000/svg" xmlns:xlink="http://www.w3.org/1999/xlink" id="svg2" width="210mm" height="297mm"><defs id="defs4"><linearGradient id="linearGradient4973"><stop offset="0" style="stop-color:#fff;stop-opacity:1" id="stop4979"/><stop id="stop4989" style="stop-color:#fffffe;stop-opacity:1" offset=".178"/><stop offset=".528" style="stop-color:#ff0;stop-opacity:1" id="stop4981"/><stop id="stop4987" style="stop-color:#ffff16;stop-opacity:1" offset=".686"/><stop offset="1" style="stop-color:#fdff2b;stop-opacity:1" id="stop4983"/></linearGradient><filter id="filter4325" width="1.377" height="1.481" x="-.188" y="-.24"><feGaussianBlur id="feGaussianBlur4327" stdDeviation="9.867"/></filter><filter id="filter4149" width="1.372" height="1.474" x="-.186" y="-.237"><feGaussianBlur id="feGaussianBlur4151" stdDeviation="9.73"/></filter><linearGradient id="linearGradient3178"><stop id="stop3180" style="stop-color:#ff0;stop-opacity:1" offset="0"/><stop id="stop3182" style="stop-color:#ffff56;stop-opacity:1" offset="0"/><stop id="stop3184" style="stop-color:#fff;stop-opacity:1" offset=".325"/><stop id="stop3186" style="stop-color:#ff0;stop-opacity:1" offset=".749"/><stop id="stop3188" style="stop-color:#ffff4a;stop-opacity:1" offset=".884"/><stop id="stop3190" style="stop-color:#fffff7;stop-opacity:1" offset="1"/></linearGradient><linearGradient id="linearGradient3139"><stop id="stop3141" style="stop-color:#fdff00;stop-opacity:1" offset="0"/><stop id="stop3147" style="stop-color:#ffff56;stop-opacity:1" offset="0"/><stop id="stop3149" style="stop-color:#fff;stop-opacity:1" offset=".325"/><stop id="stop3151" style="stop-color:#ff0;stop-opacity:1" offset=".749"/><stop id="stop3153" style="stop-color:#ffff4a;stop-opacity:1" offset=".884"/><stop id="stop3143" style="stop-color:#fffff7;stop-opacity:1" offset="1"/></linearGradient><linearGradient id="linearGradient3168" x1="70" x2="430" y1="617.375" y2="617.375" gradientUnits="userSpaceOnUse" xlink:href="#linearGradient3139"/><linearGradient id="linearGradient3194" x1="239.25" x2="347.505" y1="513.361" y2="107.032" gradientUnits="userSpaceOnUse" xlink:href="#linearGradient3139"/><linearGradient id="linearGradient3213" x1="239.25" x2="347.505" y1="513.361" y2="107.032" gradientUnits="userSpaceOnUse" xlink:href="#linearGradient3139"/><linearGradient id="linearGradient3218" x1="239.25" x2="347.505" y1="513.361" y2="107.032" gradientTransform="matrix(0.9435136,0,0,0.9402995,-95.403128,-199.41154)" gradientUnits="userSpaceOnUse" xlink:href="#linearGradient3139"/><linearGradient id="linearGradient3222" x1="239.25" x2="347.505" y1="513.361" y2="107.032" gradientTransform="matrix(0.9435136,0,0,0.9402995,-95.403119,40.588454)" gradientUnits="userSpaceOnUse" xlink:href="#linearGradient3139"/><linearGradient id="linearGradient3232" x1="40.016" x2="400" y1="227.362" y2="227.362" gradientTransform="matrix(1.0002941,0,0,0.9784875,-6.4704767e-2,2.2544246)" gradientUnits="userSpaceOnUse" xlink:href="#linearGradient3139"/><linearGradient id="linearGradient3240" x1="143.515" x2="517.44" y1="469.105" y2="470.192" gradientTransform="matrix(0.9435136,0,0,0.9402995,-95.403128,-199.41154)" gradientUnits="userSpaceOnUse" xlink:href="#linearGradient3139"/><linearGradient id="linearGradient3256" x1="239.25" x2="347.505" y1="513.361" y2="107.032" gradientUnits="userSpaceOnUse" xlink:href="#linearGradient3139"/><linearGradient id="linearGradient3260" x1="143.515" x2="517.44" y1="469.105" y2="470.192" gradientTransform="matrix(0.9435136,0,0,0.9402995,-95.408361,-199.41911)" gradientUnits="userSpaceOnUse" xlink:href="#linearGradient3139"/><filter id="filter3804" width="1.598" height="1.536" x="-.299" y="-.268"><feGaussianBlur id="feGaussianBlur3806" stdDeviation="43.628"/></filter><marker style="overflow:visible" id="TriangleInL" orient="auto" refX="0" refY="0"><path transform="scale(-0.8)" style="fill-rule:evenodd;stroke:#000;stroke-width:1pt;marker-start:none" id="path3620" d="M 5.77,0.0 L -2.88,5.0 L -2.88,-5.0 L 5.77,0.0 z"/></marker><marker style="overflow:visible" id="TriangleOutL" orient="auto" refX="0" refY="0"><path transform="scale(0.8)" style="fill-rule:evenodd;stroke:#000;stroke-width:1pt;marker-start:none" id="path3629" d="M 5.77,0.0 L -2.88,5.0 L -2.88,-5.0 L 5.77,0.0 z"/></marker><linearGradient id="linearGradient4339"><stop style="stop-color:#eff2ff;stop-opacity:1" id="stop4347" offset="0"/><stop id="stop4395" offset=".253" style="stop-color:#afbaf9;stop-opacity:1"/><stop style="stop-color:#7789ed;stop-opacity:1" id="stop4397" offset=".454"/><stop id="stop4343" offset="1" style="stop-color:#001cc7;stop-opacity:1"/></linearGradient><linearGradient id="linearGradient4359"><stop style="stop-color:#45ff52;stop-opacity:1" id="stop4361" offset="0"/><stop id="stop4363" offset=".157" style="stop-color:#dfffe2;stop-opacity:1"/><stop style="stop-color:#45ff52;stop-opacity:1" id="stop4365" offset=".362"/><stop id="stop4369" offset=".701" style="stop-color:#45ff52;stop-opacity:1"/><stop style="stop-color:#dfffe2;stop-opacity:1" id="stop4367" offset="1"/></linearGradient><linearGradient id="linearGradient4399"><stop id="stop4401" offset="0" style="stop-color:#d2ffcf;stop-opacity:1"/><stop style="stop-color:#c3ffbf;stop-opacity:1" id="stop4403" offset=".187"/><stop id="stop4405" offset=".571" style="stop-color:#0ffb00;stop-opacity:1"/><stop style="stop-color:#0cd100;stop-opacity:1" id="stop4407" offset="1"/></linearGradient><linearGradient id="linearGradient4411"><stop id="stop4413" offset="0" style="stop-color:#aaa;stop-opacity:1"/><stop id="stop4415" offset="1" style="stop-color:#fff;stop-opacity:1"/></linearGradient><linearGradient id="linearGradient2558" x1="429.649" x2="430.25" y1="153.335" y2="252.362" gradientTransform="matrix(1.0033795,0,0,1.4297039,328.48034,-548.54272)" gradientUnits="userSpaceOnUse" xlink:href="#linearGradient4399"/><linearGradient id="linearGradient2568" x1="255.48" x2="255.48" y1="154.694" y2="250.151" gradientTransform="matrix(1.0033453,0,0,0.7602859,323.28346,-411.07003)" gradientUnits="userSpaceOnUse" xlink:href="#linearGradient4339"/><linearGradient id="linearGradient2580" x1="423.922" x2="422.798" y1="293.368" y2="108.291" gradientTransform="matrix(0.698628,0,0,1.1270729,376.16596,-489.48418)" gradientUnits="userSpaceOnUse" xlink:href="#linearGradient4411"/><linearGradient id="linearGradient5095" x1="423.922" x2="422.798" y1="293.368" y2="108.291" gradientTransform="matrix(0.3860863,0,0,1.3213783,98.291806,-512.49406)" gradientUnits="userSpaceOnUse" xlink:href="#linearGradient4411"/><linearGradient id="linearGradient5097" x1="255.48" x2="255.48" y1="154.694" y2="250.151" gradientTransform="matrix(1.0606715,0,0,1.5298971,-11.21748,-541.16155)" gradientUnits="userSpaceOnUse" xlink:href="#linearGradient4339"/><linearGradient id="linearGradient5101" x1="143.515" x2="517.44" y1="469.105" y2="470.192" gradientTransform="matrix(0.9435136,0,0,0.9402995,-95.408361,-199.41911)" gradientUnits="userSpaceOnUse" xlink:href="#linearGradient3139"/><linearGradient id="linearGradient5103" x1="143.515" x2="517.44" y1="469.105" y2="470.192" gradientTransform="matrix(0.9435136,0,0,0.9402995,-95.403128,-199.41154)" gradientUnits="userSpaceOnUse" xlink:href="#linearGradient3139"/><linearGradient id="linearGradient5105" x1="239.25" x2="347.505" y1="513.361" y2="107.032" gradientUnits="userSpaceOnUse" xlink:href="#linearGradient3139"/><linearGradient id="linearGradient5147" x1="423.922" x2="422.798" y1="293.368" y2="108.291" gradientTransform="matrix(0.7478647,0,0,1.2953012,95.750004,-172.92813)" gradientUnits="userSpaceOnUse" xlink:href="#linearGradient4411"/><linearGradient id="linearGradient5151" x1="429.649" x2="430.25" y1="153.335" y2="252.362" gradientTransform="matrix(0.8716653,0,0,1.2037566,118.11379,-136.12997)" gradientUnits="userSpaceOnUse" xlink:href="#linearGradient4399"/><linearGradient id="linearGradient5153" x1="143.515" x2="517.44" y1="469.105" y2="470.192" gradientTransform="matrix(0.9435136,0,0,0.9402995,-95.408361,-199.41911)" gradientUnits="userSpaceOnUse" xlink:href="#linearGradient3139"/><linearGradient id="linearGradient5155" x1="143.515" x2="517.44" y1="469.105" y2="470.192" gradientTransform="matrix(0.9435136,0,0,0.9402995,-95.403128,-199.41154)" gradientUnits="userSpaceOnUse" xlink:href="#linearGradient3139"/><linearGradient id="linearGradient5157" x1="239.25" x2="347.505" y1="513.361" y2="107.032" gradientUnits="userSpaceOnUse" xlink:href="#linearGradient3139"/><linearGradient id="linearGradient5173" x1="429.649" x2="430.25" y1="153.335" y2="252.362" gradientTransform="matrix(1.1542805,0,0,1.7820505,-4.9853896,-271.21806)" gradientUnits="userSpaceOnUse" xlink:href="#linearGradient4339"/><linearGradient id="linearGradient5195" x1="255.48" x2="255.48" y1="154.694" y2="250.151" gradientTransform="matrix(1.0033453,0,0,0.7602859,47.752518,-47.427395)" gradientUnits="userSpaceOnUse" xlink:href="#linearGradient4339"/><linearGradient id="linearGradient5209" x1="143.515" x2="517.44" y1="469.105" y2="470.192" gradientTransform="matrix(0.9435136,0,0,0.9402995,-95.408361,-199.41911)" gradientUnits="userSpaceOnUse" xlink:href="#linearGradient3139"/><linearGradient id="linearGradient5211" x1="143.515" x2="517.44" y1="469.105" y2="470.192" gradientTransform="matrix(0.9435136,0,0,0.9402995,-95.403128,-199.41154)" gradientUnits="userSpaceOnUse" xlink:href="#linearGradient3139"/><linearGradient id="linearGradient5213" x1="239.25" x2="347.505" y1="513.361" y2="107.032" gradientUnits="userSpaceOnUse" xlink:href="#linearGradient3139"/><linearGradient id="linearGradient5239" x1="143.515" x2="517.44" y1="469.105" y2="470.192" gradientTransform="matrix(0.9435136,0,0,0.9402995,-95.408361,-199.41911)" gradientUnits="userSpaceOnUse" xlink:href="#linearGradient3139"/><linearGradient id="linearGradient5241" x1="143.515" x2="517.44" y1="469.105" y2="470.192" gradientTransform="matrix(0.9435136,0,0,0.9402995,-95.403128,-199.41154)" gradientUnits="userSpaceOnUse" xlink:href="#linearGradient3139"/><linearGradient id="linearGradient5243" x1="239.25" x2="347.505" y1="513.361" y2="107.032" gradientUnits="userSpaceOnUse" xlink:href="#linearGradient3139"/></defs><metadata id="metadata7"/><g id="layer1"><g id="g2525" transform="translate(-75.766296,334.50076)"><rect style="fill:url(#linearGradient5147);fill-opacity:1;stroke:none;stroke-width:2.93142509;stroke-linecap:round;stroke-linejoin:round;stroke-miterlimit:4;stroke-dasharray:none;stroke-dashoffset:0;stroke-opacity:1" id="rect5107" width="402.813" height="239.729" x="213.992" y="-32.658"/><rect style="fill:#000;fill-opacity:1;stroke:#000;stroke-width:0;stroke-linecap:round;stroke-linejoin:round;stroke-miterlimit:4;stroke-dasharray:none;stroke-opacity:1;filter:url(#filter4325);font-family:Verdana" id="rect5109" width="125.717" height="98.538" x="408.325" y="135.492" transform="matrix(1.1786277,0,0,1.7447534,-48.91919,-225.4643)"/><rect style="fill:url(#linearGradient5173);fill-opacity:1;stroke:#000;stroke-width:4.80590677;stroke-linecap:round;stroke-linejoin:round;stroke-miterlimit:4;stroke-dasharray:none;stroke-opacity:1;font-family:Verdana" id="rect5167" width="147.508" height="175.753" x="424.032" y="-.235"/><text xml:space="preserve" style="font-size:12px;font-style:normal;font-weight:400;text-align:center;text-anchor:middle;fill:#000;fill-opacity:1;stroke:none;stroke-width:1px;stroke-linecap:butt;stroke-linejoin:miter;stroke-opacity:1;font-family:Verdana" id="text5169" x="498.325" y="28.369"><tspan id="tspan5171" x="498.325" y="28.369" style="font-size:16px;font-weight:700;font-family:Verdana">Application</tspan></text><rect style="fill:url(#linearGradient2580);fill-opacity:1;stroke:none;stroke-width:2.93142509;stroke-linecap:round;stroke-linejoin:round;stroke-miterlimit:4;stroke-dasharray:none;stroke-dashoffset:0;stroke-opacity:1" id="rect4409" width="376.293" height="208.594" x="486.624" y="-367.432"/><rect style="fill:#000;fill-opacity:1;stroke:#000;stroke-width:0;stroke-linecap:round;stroke-linejoin:round;stroke-miterlimit:4;stroke-dasharray:none;stroke-opacity:1;filter:url(#filter4325);font-family:Verdana" id="rect3743" width="125.717" height="98.538" x="408.325" y="135.492" transform="matrix(1.0056246,0,0,1.4189966,298.7209,-515.18117)"/><rect style="fill:#000;fill-opacity:1;stroke:#000;stroke-width:0;stroke-linecap:round;stroke-linejoin:round;stroke-miterlimit:4;stroke-dasharray:none;stroke-opacity:1;filter:url(#filter4149);font-family:Verdana" id="rect3741" width="125.717" height="98.538" x="201.628" y="162.362" transform="matrix(1,0,0,0.7488419,324.13812,-407.00273)"/><rect style="fill:url(#linearGradient2568);fill-opacity:1;stroke:#000;stroke-width:2.90143824;stroke-linecap:round;stroke-linejoin:round;stroke-miterlimit:4;stroke-dasharray:none;stroke-opacity:1;font-family:Verdana" id="rect2247" width="126.138" height="74.917" x="516.55" y="-293.968"/><text xml:space="preserve" style="font-size:12px;font-style:normal;font-weight:400;text-align:center;text-anchor:middle;fill:#000;fill-opacity:1;stroke:none;stroke-width:1px;stroke-linecap:butt;stroke-linejoin:miter;stroke-opacity:1;font-family:Verdana" id="text2543" x="580.158" y="-252.041"><tspan id="tspan2547" x="580.158" y="-252.041" style="font-size:16px;font-weight:700;font-family:Verdana">Application</tspan></text><rect style="fill:url(#linearGradient2558);fill-opacity:1;stroke:#000;stroke-width:4.01342726;stroke-linecap:round;stroke-linejoin:round;stroke-miterlimit:4;stroke-dasharray:none;stroke-opacity:1;font-family:Verdana" id="rect2527" width="128.224" height="141.003" x="701.412" y="-331.138"/><path style="fill:none;fill-rule:evenodd;stroke:#000;stroke-width:.93698043px;stroke-linecap:butt;stroke-linejoin:miter;marker-start:url(#TriangleInL);marker-end:url(#TriangleOutL);stroke-opacity:1;display:inline" id="path3404" d="M 648.28824,-254.73048 L 695.49003,-254.73174"/><g id="g5215" transform="translate(-12.760086,0)"><g style="font-family:Verdana" id="g2221" transform="matrix(0.181873,0,0,0.181873,736.84199,-283.07435)"><path id="path3272" d="M 250.25523,46.888183 C 153.53161,46.888183 75.03648,80.614553 75.03648,122.13817 C 75.03648,123.73895 75.15035,125.31213 75.38023,126.88817 L 75.03648,126.88817 L 75.03648,362.07567 C 75.03644,362.09624 75.03648,362.11759 75.03648,362.13817 C 75.03648,403.6618 153.53162,437.35691 250.25523,437.35692 C 346.97885,437.35692 425.47398,403.66179 425.47398,362.13817 C 425.47398,362.11759 425.47402,362.09624 425.47398,362.07567 L 425.47398,126.88817 L 425.13023,126.88817 C 425.36011,125.31213 425.47398,123.73895 425.47398,122.13817 C 425.47398,80.614563 346.97885,46.888183 250.25523,46.888183 z" style="fill:#000;fill-opacity:1;stroke:#000;stroke-width:0;stroke-miterlimit:4;stroke-dasharray:none;stroke-opacity:1;filter:url(#filter3804);font-family:Verdana"/><path id="path3258" d="M 219.99477,27.117433 C 123.27115,27.117433 44.776019,60.843803 44.776017,102.36743 C 44.776017,103.96821 44.88989,105.54139 45.119767,107.11743 L 44.776017,107.11743 L 44.776017,342.30493 C 44.775978,342.3255 44.776017,342.34685 44.776017,342.36743 C 44.776017,383.89106 123.27116,417.58617 219.99477,417.58618 C 316.71839,417.58618 395.21352,383.89105 395.21352,342.36743 C 395.21352,342.34685 395.21356,342.3255 395.21352,342.30493 L 395.21352,107.11743 L 394.86977,107.11743 C 395.09965,105.54139 395.21352,103.96821 395.21352,102.36743 C 395.21352,60.843807 316.71839,27.117434 219.99477,27.117433 z" style="fill:url(#linearGradient3260);fill-opacity:1;stroke:#000;stroke-width:29.05200005;stroke-miterlimit:4;stroke-dasharray:none;stroke-opacity:1;font-family:Verdana"/><path id="path3159" d="M 220,27.125 C 123.27638,27.125 44.781252,60.85137 44.78125,102.375 C 44.78125,103.97578 44.895123,105.54896 45.125,107.125 L 44.78125,107.125 L 44.78125,342.3125 C 44.781211,342.33307 44.78125,342.35442 44.78125,342.375 C 44.78125,383.89863 123.27639,417.59374 220,417.59375 C 316.72362,417.59375 395.21875,383.89862 395.21875,342.375 C 395.21875,342.35442 395.21879,342.33307 395.21875,342.3125 L 395.21875,107.125 L 394.875,107.125 C 395.10488,105.54896 395.21875,103.97578 395.21875,102.375 C 395.21875,60.851374 316.72362,27.125001 220,27.125 z" style="fill:url(#linearGradient3240);fill-opacity:1;stroke:#000;stroke-width:0;stroke-miterlimit:4;stroke-dasharray:none;stroke-opacity:1;font-family:Verdana"/><path id="path3254" d="M 519.99998,320.93362 A 185.71428,80 0 1 1 148.57143,320.93362 A 185.71428,80 0 1 1 519.99998,320.93362 z" transform="matrix(0.9435136,0,0,0.9402995,-95.403109,-199.41154)" style="fill:url(#linearGradient3256);fill-opacity:1;stroke:#000;stroke-width:0;marker-start:none;stroke-miterlimit:4;stroke-dasharray:none;stroke-opacity:1;font-family:Verdana"/><path id="path3235" d="M 234.15842,388.31056 A 185.71428,80 0 0 1 161.53854,350.30252" transform="matrix(0.9435136,0,0,0.9402995,-95.403109,-199.41154)" style="fill:none;fill-opacity:1;stroke:#000;stroke-width:5.89443636;marker-start:none;stroke-miterlimit:4;stroke-dasharray:none;stroke-opacity:1;font-family:Verdana"/><path id="path3250" d="M 506.90527,350.44141 A 185.71428,80 0 0 1 283.97721,397.94241" transform="matrix(0.9435136,0,0,0.9402995,-95.403109,-199.41154)" style="fill:none;fill-opacity:1;stroke:#000;stroke-width:5.89443636;marker-start:none;stroke-miterlimit:4;stroke-dasharray:none;stroke-opacity:1;font-family:Verdana"/></g><text id="text2529" x="777.439" y="-235.072" style="font-size:7.78690624px;font-style:normal;font-weight:400;fill:#000;fill-opacity:1;stroke:none;stroke-width:1px;stroke-linecap:butt;stroke-linejoin:miter;stroke-opacity:1;font-family:Verdana" xml:space="preserve"><tspan style="font-size:10.38254166px;font-weight:700;text-align:center;text-anchor:middle;font-family:Verdana" id="tspan2533" x="779.214" y="-235.072">H2 </tspan><tspan id="tspan4991" style="font-size:10.38254166px;font-weight:700;text-align:center;text-anchor:middle;font-family:Verdana" x="777.439" y="-222.094">Database</tspan></text></g><text xml:space="preserve" style="font-size:12px;font-style:normal;font-weight:400;text-align:center;text-anchor:middle;fill:#000;fill-opacity:1;stroke:none;stroke-width:1px;stroke-linecap:butt;stroke-linejoin:miter;stroke-opacity:1;font-family:Verdana" id="text5051" x="764.922" y="-302.139"><tspan id="tspan5053" x="764.922" y="-302.139" style="font-size:16px;font-weight:700;font-family:Verdana">H2 Server</tspan></text><rect style="fill:url(#linearGradient5095);fill-opacity:1;stroke:none;stroke-width:2.93142509;stroke-linecap:round;stroke-linejoin:round;stroke-miterlimit:4;stroke-dasharray:none;stroke-dashoffset:0;stroke-opacity:1" id="rect5055" width="207.953" height="244.556" x="159.335" y="-369.4"/><rect style="fill:#000;fill-opacity:1;stroke:#000;stroke-width:0;stroke-linecap:round;stroke-linejoin:round;stroke-miterlimit:4;stroke-dasharray:none;stroke-opacity:1;filter:url(#filter4149);font-family:Verdana" id="rect5059" width="125.717" height="98.538" x="201.628" y="162.362" transform="matrix(1.0665397,0,0,1.5355111,-15.34845,-546.684)"/><rect style="fill:url(#linearGradient5097);fill-opacity:1;stroke:#000;stroke-width:4.23176098;stroke-linecap:round;stroke-linejoin:round;stroke-miterlimit:4;stroke-dasharray:none;stroke-opacity:1;font-family:Verdana" id="rect5061" width="133.344" height="150.754" x="193.091" y="-305.522"/><text xml:space="preserve" style="font-size:12px;font-style:normal;font-weight:400;text-align:center;text-anchor:middle;fill:#000;fill-opacity:1;stroke:none;stroke-width:1px;stroke-linecap:butt;stroke-linejoin:miter;stroke-opacity:1;font-family:Verdana" id="text5063" x="260.302" y="-274.855"><tspan id="tspan5065" x="260.302" y="-274.855" style="font-size:16px;font-weight:700;font-family:Verdana">Application</tspan></text><g id="g5197" transform="translate(-7.0762655,4.4614243)"><g style="font-family:Verdana" id="g5071" transform="matrix(0.181873,0,0,0.181873,225.39759,-256.08177)"><path id="path5073" d="M 250.25523,46.888183 C 153.53161,46.888183 75.03648,80.614553 75.03648,122.13817 C 75.03648,123.73895 75.15035,125.31213 75.38023,126.88817 L 75.03648,126.88817 L 75.03648,362.07567 C 75.03644,362.09624 75.03648,362.11759 75.03648,362.13817 C 75.03648,403.6618 153.53162,437.35691 250.25523,437.35692 C 346.97885,437.35692 425.47398,403.66179 425.47398,362.13817 C 425.47398,362.11759 425.47402,362.09624 425.47398,362.07567 L 425.47398,126.88817 L 425.13023,126.88817 C 425.36011,125.31213 425.47398,123.73895 425.47398,122.13817 C 425.47398,80.614563 346.97885,46.888183 250.25523,46.888183 z" style="fill:#000;fill-opacity:1;stroke:#000;stroke-width:0;stroke-miterlimit:4;stroke-dasharray:none;stroke-opacity:1;filter:url(#filter3804);font-family:Verdana"/><path id="path5075" d="M 219.99477,27.117433 C 123.27115,27.117433 44.776019,60.843803 44.776017,102.36743 C 44.776017,103.96821 44.88989,105.54139 45.119767,107.11743 L 44.776017,107.11743 L 44.776017,342.30493 C 44.775978,342.3255 44.776017,342.34685 44.776017,342.36743 C 44.776017,383.89106 123.27116,417.58617 219.99477,417.58618 C 316.71839,417.58618 395.21352,383.89105 395.21352,342.36743 C 395.21352,342.34685 395.21356,342.3255 395.21352,342.30493 L 395.21352,107.11743 L 394.86977,107.11743 C 395.09965,105.54139 395.21352,103.96821 395.21352,102.36743 C 395.21352,60.843807 316.71839,27.117434 219.99477,27.117433 z" style="fill:url(#linearGradient5209);fill-opacity:1;stroke:#000;stroke-width:29.05200005;stroke-miterlimit:4;stroke-dasharray:none;stroke-opacity:1;font-family:Verdana"/><path id="path5077" d="M 220,27.125 C 123.27638,27.125 44.781252,60.85137 44.78125,102.375 C 44.78125,103.97578 44.895123,105.54896 45.125,107.125 L 44.78125,107.125 L 44.78125,342.3125 C 44.781211,342.33307 44.78125,342.35442 44.78125,342.375 C 44.78125,383.89863 123.27639,417.59374 220,417.59375 C 316.72362,417.59375 395.21875,383.89862 395.21875,342.375 C 395.21875,342.35442 395.21879,342.33307 395.21875,342.3125 L 395.21875,107.125 L 394.875,107.125 C 395.10488,105.54896 395.21875,103.97578 395.21875,102.375 C 395.21875,60.851374 316.72362,27.125001 220,27.125 z" style="fill:url(#linearGradient5211);fill-opacity:1;stroke:#000;stroke-width:0;stroke-miterlimit:4;stroke-dasharray:none;stroke-opacity:1;font-family:Verdana"/><path id="path5079" d="M 519.99998,320.93362 A 185.71428,80 0 1 1 148.57143,320.93362 A 185.71428,80 0 1 1 519.99998,320.93362 z" transform="matrix(0.9435136,0,0,0.9402995,-95.403109,-199.41154)" style="fill:url(#linearGradient5213);fill-opacity:1;stroke:#000;stroke-width:0;marker-start:none;stroke-miterlimit:4;stroke-dasharray:none;stroke-opacity:1;font-family:Verdana"/><path id="path5081" d="M 234.15842,388.31056 A 185.71428,80 0 0 1 161.53854,350.30252" transform="matrix(0.9435136,0,0,0.9402995,-95.403109,-199.41154)" style="fill:none;fill-opacity:1;stroke:#000;stroke-width:5.89443636;marker-start:none;stroke-miterlimit:4;stroke-dasharray:none;stroke-opacity:1;font-family:Verdana"/><path id="path5083" d="M 506.90527,350.44141 A 185.71428,80 0 0 1 283.97721,397.94241" transform="matrix(0.9435136,0,0,0.9402995,-95.403109,-199.41154)" style="fill:none;fill-opacity:1;stroke:#000;stroke-width:5.89443636;marker-start:none;stroke-miterlimit:4;stroke-dasharray:none;stroke-opacity:1;font-family:Verdana"/></g><text id="text5085" x="265.995" y="-208.079" style="font-size:7.78690624px;font-style:normal;font-weight:400;fill:#000;fill-opacity:1;stroke:none;stroke-width:1px;stroke-linecap:butt;stroke-linejoin:miter;stroke-opacity:1;font-family:Verdana" xml:space="preserve"><tspan style="font-size:10.38254166px;font-weight:700;text-align:center;text-anchor:middle;font-family:Verdana" id="tspan5087" x="267.769" y="-208.079">H2 </tspan><tspan id="tspan5089" style="font-size:10.38254166px;font-weight:700;text-align:center;text-anchor:middle;font-family:Verdana" x="265.995" y="-195.101">Database</tspan></text></g><rect style="fill:url(#linearGradient5151);fill-opacity:1;stroke:#000;stroke-width:3.43244791;stroke-linecap:round;stroke-linejoin:round;stroke-miterlimit:4;stroke-dasharray:none;stroke-opacity:1;font-family:Verdana" id="rect5119" width="111.392" height="118.719" x="442.09" y="46.917"/><path style="fill:none;fill-rule:evenodd;stroke:#000;stroke-width:.93698043px;stroke-linecap:butt;stroke-linejoin:miter;marker-start:url(#TriangleInL);marker-end:url(#TriangleOutL);stroke-opacity:1;display:inline" id="path5121" d="M 371.86911,112.86142 L 438.07341,112.86142"/><g id="g5227" transform="translate(-29.053227,0)"><g style="font-family:Verdana" id="g5123" transform="matrix(0.181873,0,0,0.181873,485.39759,79.722359)"><path id="path5125" d="M 250.25523,46.888183 C 153.53161,46.888183 75.03648,80.614553 75.03648,122.13817 C 75.03648,123.73895 75.15035,125.31213 75.38023,126.88817 L 75.03648,126.88817 L 75.03648,362.07567 C 75.03644,362.09624 75.03648,362.11759 75.03648,362.13817 C 75.03648,403.6618 153.53162,437.35691 250.25523,437.35692 C 346.97885,437.35692 425.47398,403.66179 425.47398,362.13817 C 425.47398,362.11759 425.47402,362.09624 425.47398,362.07567 L 425.47398,126.88817 L 425.13023,126.88817 C 425.36011,125.31213 425.47398,123.73895 425.47398,122.13817 C 425.47398,80.614563 346.97885,46.888183 250.25523,46.888183 z" style="fill:#000;fill-opacity:1;stroke:#000;stroke-width:0;stroke-miterlimit:4;stroke-dasharray:none;stroke-opacity:1;filter:url(#filter3804);font-family:Verdana"/><path id="path5127" d="M 219.99477,27.117433 C 123.27115,27.117433 44.776019,60.843803 44.776017,102.36743 C 44.776017,103.96821 44.88989,105.54139 45.119767,107.11743 L 44.776017,107.11743 L 44.776017,342.30493 C 44.775978,342.3255 44.776017,342.34685 44.776017,342.36743 C 44.776017,383.89106 123.27116,417.58617 219.99477,417.58618 C 316.71839,417.58618 395.21352,383.89105 395.21352,342.36743 C 395.21352,342.34685 395.21356,342.3255 395.21352,342.30493 L 395.21352,107.11743 L 394.86977,107.11743 C 395.09965,105.54139 395.21352,103.96821 395.21352,102.36743 C 395.21352,60.843807 316.71839,27.117434 219.99477,27.117433 z" style="fill:url(#linearGradient5239);fill-opacity:1;stroke:#000;stroke-width:29.05200005;stroke-miterlimit:4;stroke-dasharray:none;stroke-opacity:1;font-family:Verdana"/><path id="path5129" d="M 220,27.125 C 123.27638,27.125 44.781252,60.85137 44.78125,102.375 C 44.78125,103.97578 44.895123,105.54896 45.125,107.125 L 44.78125,107.125 L 44.78125,342.3125 C 44.781211,342.33307 44.78125,342.35442 44.78125,342.375 C 44.78125,383.89863 123.27639,417.59374 220,417.59375 C 316.72362,417.59375 395.21875,383.89862 395.21875,342.375 C 395.21875,342.35442 395.21879,342.33307 395.21875,342.3125 L 395.21875,107.125 L 394.875,107.125 C 395.10488,105.54896 395.21875,103.97578 395.21875,102.375 C 395.21875,60.851374 316.72362,27.125001 220,27.125 z" style="fill:url(#linearGradient5241);fill-opacity:1;stroke:#000;stroke-width:0;stroke-miterlimit:4;stroke-dasharray:none;stroke-opacity:1;font-family:Verdana"/><path id="path5131" d="M 519.99998,320.93362 A 185.71428,80 0 1 1 148.57143,320.93362 A 185.71428,80 0 1 1 519.99998,320.93362 z" transform="matrix(0.9435136,0,0,0.9402995,-95.403109,-199.41154)" style="fill:url(#linearGradient5243);fill-opacity:1;stroke:#000;stroke-width:0;marker-start:none;stroke-miterlimit:4;stroke-dasharray:none;stroke-opacity:1;font-family:Verdana"/><path id="path5133" d="M 234.15842,388.31056 A 185.71428,80 0 0 1 161.53854,350.30252" transform="matrix(0.9435136,0,0,0.9402995,-95.403109,-199.41154)" style="fill:none;fill-opacity:1;stroke:#000;stroke-width:5.89443636;marker-start:none;stroke-miterlimit:4;stroke-dasharray:none;stroke-opacity:1;font-family:Verdana"/><path id="path5135" d="M 506.90527,350.44141 A 185.71428,80 0 0 1 283.97721,397.94241" transform="matrix(0.9435136,0,0,0.9402995,-95.403109,-199.41154)" style="fill:none;fill-opacity:1;stroke:#000;stroke-width:5.89443636;marker-start:none;stroke-miterlimit:4;stroke-dasharray:none;stroke-opacity:1;font-family:Verdana"/></g><text id="text5137" x="525.995" y="127.725" style="font-size:7.78690624px;font-style:normal;font-weight:400;fill:#000;fill-opacity:1;stroke:none;stroke-width:1px;stroke-linecap:butt;stroke-linejoin:miter;stroke-opacity:1;font-family:Verdana" xml:space="preserve"><tspan style="font-size:10.38254166px;font-weight:700;text-align:center;text-anchor:middle;font-family:Verdana" id="tspan5139" x="527.769" y="127.725">H2 </tspan><tspan id="tspan5141" style="font-size:10.38254166px;font-weight:700;text-align:center;text-anchor:middle;font-family:Verdana" x="525.995" y="140.703">Database</tspan></text></g><text xml:space="preserve" style="font-size:12px;font-style:normal;font-weight:400;text-align:center;text-anchor:middle;fill:#000;fill-opacity:1;stroke:none;stroke-width:1px;stroke-linecap:butt;stroke-linejoin:miter;stroke-opacity:1;font-family:Verdana" id="text5143" x="497.185" y="73.54"><tspan id="tspan5145" x="497.185" y="73.54" style="font-size:16px;font-weight:700;font-family:Verdana">H2 Server</tspan></text><text xml:space="preserve" style="font-size:12px;font-style:normal;font-weight:400;text-align:center;text-anchor:middle;fill:#000;fill-opacity:1;stroke:none;stroke-width:1px;stroke-linecap:butt;stroke-linejoin:miter;stroke-opacity:1;font-family:Verdana" id="text5175" x="260.978" y="-337.549"><tspan id="tspan5177" x="260.978" y="-337.549" style="font-size:16px;font-weight:700;font-family:Verdana">Embedded</tspan></text><text xml:space="preserve" style="font-size:12px;font-style:normal;font-weight:400;text-align:center;text-anchor:middle;fill:#000;fill-opacity:1;stroke:none;stroke-width:1px;stroke-linecap:butt;stroke-linejoin:miter;stroke-opacity:1;font-family:Verdana" id="text5179" x="561.173" y="-325.13"><tspan id="tspan5181" x="561.173" y="-325.13" style="font-size:16px;font-weight:700;font-family:Verdana">Remote</tspan></text><text xml:space="preserve" style="font-size:12px;font-style:normal;font-weight:400;text-align:center;text-anchor:middle;fill:#000;fill-opacity:1;stroke:none;stroke-width:1px;stroke-linecap:butt;stroke-linejoin:miter;stroke-opacity:1;font-family:Verdana" id="text5183" x="301.364" y="16.096"><tspan id="tspan5185" x="301.364" y="16.096" style="font-size:16px;font-weight:700;font-family:Verdana">Mixed Mode</tspan></text><rect style="fill:#000;fill-opacity:1;stroke:#000;stroke-width:0;stroke-linecap:round;stroke-linejoin:round;stroke-miterlimit:4;stroke-dasharray:none;stroke-opacity:1;filter:url(#filter4149);font-family:Verdana" id="rect5187" width="125.717" height="98.538" x="201.628" y="162.362" transform="matrix(1,0,0,0.7488419,46.330634,-45.590806)"/><rect style="fill:url(#linearGradient5195);fill-opacity:1;stroke:#000;stroke-width:2.90143824;stroke-linecap:round;stroke-linejoin:round;stroke-miterlimit:4;stroke-dasharray:none;stroke-opacity:1;font-family:Verdana" id="rect5189" width="126.138" height="74.917" x="241.019" y="69.674"/><text xml:space="preserve" style="font-size:12px;font-style:normal;font-weight:400;text-align:center;text-anchor:middle;fill:#000;fill-opacity:1;stroke:none;stroke-width:1px;stroke-linecap:butt;stroke-linejoin:miter;stroke-opacity:1;font-family:Verdana" id="text5191" x="304.627" y="111.602"><tspan id="tspan5193" x="304.627" y="111.602" style="font-size:16px;font-weight:700;font-family:Verdana">Application</tspan></text></g></g></svg>