<svg xmlns="http://www.w3.org/2000/svg" xmlns:cc="http://web.resource.org/cc/" xmlns:svg="http://www.w3.org/2000/svg" xmlns:xlink="http://www.w3.org/1999/xlink" id="svg2" width="210mm" height="297mm"><defs id="defs4"><linearGradient id="linearGradient3178"><stop id="stop3180" offset="0" style="stop-color:#ff0;stop-opacity:1"/><stop style="stop-color:#ffff56;stop-opacity:1" id="stop3182" offset="0"/><stop id="stop3184" offset=".325" style="stop-color:#fff;stop-opacity:1"/><stop style="stop-color:#ff0;stop-opacity:1" id="stop3186" offset=".749"/><stop id="stop3188" offset=".884" style="stop-color:#ffff4a;stop-opacity:1"/><stop id="stop3190" offset="1" style="stop-color:#fffff7;stop-opacity:1"/></linearGradient><linearGradient id="linearGradient3139"><stop style="stop-color:#fdff00;stop-opacity:1" id="stop3141" offset="0"/><stop id="stop3147" offset="0" style="stop-color:#ffff56;stop-opacity:1"/><stop style="stop-color:#fff;stop-opacity:1" id="stop3149" offset=".325"/><stop id="stop3151" offset=".749" style="stop-color:#ff0;stop-opacity:1"/><stop style="stop-color:#ffff4a;stop-opacity:1" id="stop3153" offset=".884"/><stop style="stop-color:#fffff7;stop-opacity:1" id="stop3143" offset="1"/></linearGradient><linearGradient id="linearGradient3168" x1="70" x2="430" y1="617.375" y2="617.375" gradientUnits="userSpaceOnUse" xlink:href="#linearGradient3139"/><linearGradient id="linearGradient3194" x1="239.25" x2="347.505" y1="513.361" y2="107.032" gradientUnits="userSpaceOnUse" xlink:href="#linearGradient3139"/><linearGradient id="linearGradient3213" x1="239.25" x2="347.505" y1="513.361" y2="107.032" gradientUnits="userSpaceOnUse" xlink:href="#linearGradient3139"/><linearGradient id="linearGradient3218" x1="239.25" x2="347.505" y1="513.361" y2="107.032" gradientTransform="matrix(0.9435136,0,0,0.9402995,-95.403128,-199.41154)" gradientUnits="userSpaceOnUse" xlink:href="#linearGradient3139"/><linearGradient id="linearGradient3222" x1="239.25" x2="347.505" y1="513.361" y2="107.032" gradientTransform="matrix(0.9435136,0,0,0.9402995,-95.403119,40.588454)" gradientUnits="userSpaceOnUse" xlink:href="#linearGradient3139"/><linearGradient id="linearGradient3232" x1="40.016" x2="400" y1="227.362" y2="227.362" gradientTransform="matrix(1.0002941,0,0,0.9784875,-6.4704767e-2,2.2544246)" gradientUnits="userSpaceOnUse" xlink:href="#linearGradient3139"/><linearGradient id="linearGradient3240" x1="143.515" x2="517.44" y1="469.105" y2="470.192" gradientTransform="matrix(0.9435136,0,0,0.9402995,-95.403128,-199.41154)" gradientUnits="userSpaceOnUse" xlink:href="#linearGradient3139"/><linearGradient id="linearGradient3256" x1="239.25" x2="347.505" y1="513.361" y2="107.032" gradientUnits="userSpaceOnUse" xlink:href="#linearGradient3139"/><linearGradient id="linearGradient3260" x1="143.515" x2="517.44" y1="469.105" y2="470.192" gradientTransform="matrix(0.9435136,0,0,0.9402995,-95.408361,-199.41911)" gradientUnits="userSpaceOnUse" xlink:href="#linearGradient3139"/><filter id="filter3804" width="1.598" height="1.536" x="-.299" y="-.268"><feGaussianBlur id="feGaussianBlur3806" stdDeviation="43.628"/></filter><linearGradient id="linearGradient2224" x1="143.515" x2="517.44" y1="469.105" y2="470.192" gradientTransform="matrix(0.9435136,0,0,0.9402995,-95.408361,-199.41911)" gradientUnits="userSpaceOnUse" xlink:href="#linearGradient3139"/><linearGradient id="linearGradient2226" x1="143.515" x2="517.44" y1="469.105" y2="470.192" gradientTransform="matrix(0.9435136,0,0,0.9402995,-95.403128,-199.41154)" gradientUnits="userSpaceOnUse" xlink:href="#linearGradient3139"/><linearGradient id="linearGradient2228" x1="239.25" x2="347.505" y1="513.361" y2="107.032" gradientUnits="userSpaceOnUse" xlink:href="#linearGradient3139"/></defs><metadata id="metadata7"/><g id="layer1"><rect style="fill:#fff;fill-opacity:1;stroke:none;stroke-width:3.32200003;stroke-linecap:round;stroke-linejoin:round;stroke-miterlimit:4;stroke-dasharray:none;stroke-dashoffset:0;stroke-opacity:1" id="rect2214" width="530" height="530" x="-60" y="-57.638"/><g id="g2216" transform="translate(-22.861999,-17.611994)"><path id="path3272" d="M 250.25523,46.888183 C 153.53161,46.888183 75.03648,80.614553 75.03648,122.13817 C 75.03648,123.73895 75.15035,125.31213 75.38023,126.88817 L 75.03648,126.88817 L 75.03648,362.07567 C 75.03644,362.09624 75.03648,362.11759 75.03648,362.13817 C 75.03648,403.6618 153.53162,437.35691 250.25523,437.35692 C 346.97885,437.35692 425.47398,403.66179 425.47398,362.13817 C 425.47398,362.11759 425.47402,362.09624 425.47398,362.07567 L 425.47398,126.88817 L 425.13023,126.88817 C 425.36011,125.31213 425.47398,123.73895 425.47398,122.13817 C 425.47398,80.614563 346.97885,46.888183 250.25523,46.888183 z" style="fill:#000;fill-opacity:1;stroke:#000;stroke-width:0;stroke-miterlimit:4;stroke-dasharray:none;stroke-opacity:1;filter:url(#filter3804)"/><path id="path3258" d="M 219.99477,27.117433 C 123.27115,27.117433 44.776019,60.843803 44.776017,102.36743 C 44.776017,103.96821 44.88989,105.54139 45.119767,107.11743 L 44.776017,107.11743 L 44.776017,342.30493 C 44.775978,342.3255 44.776017,342.34685 44.776017,342.36743 C 44.776017,383.89106 123.27116,417.58617 219.99477,417.58618 C 316.71839,417.58618 395.21352,383.89105 395.21352,342.36743 C 395.21352,342.34685 395.21356,342.3255 395.21352,342.30493 L 395.21352,107.11743 L 394.86977,107.11743 C 395.09965,105.54139 395.21352,103.96821 395.21352,102.36743 C 395.21352,60.843807 316.71839,27.117434 219.99477,27.117433 z" style="fill:url(#linearGradient2224);fill-opacity:1;stroke:#000;stroke-width:29.05200005;stroke-miterlimit:4;stroke-dasharray:none;stroke-opacity:1"/><path id="path3159" d="M 220,27.125 C 123.27638,27.125 44.781252,60.85137 44.78125,102.375 C 44.78125,103.97578 44.895123,105.54896 45.125,107.125 L 44.78125,107.125 L 44.78125,342.3125 C 44.781211,342.33307 44.78125,342.35442 44.78125,342.375 C 44.78125,383.89863 123.27639,417.59374 220,417.59375 C 316.72362,417.59375 395.21875,383.89862 395.21875,342.375 C 395.21875,342.35442 395.21879,342.33307 395.21875,342.3125 L 395.21875,107.125 L 394.875,107.125 C 395.10488,105.54896 395.21875,103.97578 395.21875,102.375 C 395.21875,60.851374 316.72362,27.125001 220,27.125 z" style="fill:url(#linearGradient2226);fill-opacity:1;stroke:#000;stroke-width:0;stroke-miterlimit:4;stroke-dasharray:none;stroke-opacity:1"/><path id="path3254" d="M 519.99998 320.93362 A 185.71428 80 0 1 1 148.57143,320.93362 A 185.71428 80 0 1 1 519.99998 320.93362 z" transform="matrix(0.9435136,0,0,0.9402995,-95.403109,-199.41154)" style="fill:url(#linearGradient2228);fill-opacity:1;stroke:#000;stroke-width:0;marker-start:none;stroke-miterlimit:4;stroke-dasharray:none;stroke-opacity:1"/><path id="path3235" d="M 234.15842,388.31056 A 185.71428,80 0 0 1 161.53854,350.30252" transform="matrix(0.9435136,0,0,0.9402995,-95.403109,-199.41154)" style="fill:none;fill-opacity:1;stroke:#000;stroke-width:5.89443636;marker-start:none;stroke-miterlimit:4;stroke-dasharray:none;stroke-opacity:1"/><path id="path3250" d="M 506.90527,350.44141 A 185.71428,80 0 0 1 283.97721,397.94241" transform="matrix(0.9435136,0,0,0.9402995,-95.403109,-199.41154)" style="fill:none;fill-opacity:1;stroke:#000;stroke-width:5.89443636;marker-start:none;stroke-miterlimit:4;stroke-dasharray:none;stroke-opacity:1"/></g></g></svg>