<svg xmlns="http://www.w3.org/2000/svg" xmlns:svg="http://www.w3.org/2000/svg" xmlns:xlink="http://www.w3.org/1999/xlink" id="svg2" width="744.094" height="1052.362" version="1.1"><defs id="defs4"><linearGradient id="linearGradient3771"><stop id="stop3773" offset="0" style="stop-color:#99e354;stop-opacity:1"/><stop id="stop3775" offset="1" style="stop-color:#6a9e3b;stop-opacity:1"/></linearGradient><linearGradient id="linearGradient3763"><stop style="stop-color:#76d849;stop-opacity:1" id="stop3765" offset="0"/><stop style="stop-color:#689556;stop-opacity:1" id="stop3767" offset="1"/></linearGradient><linearGradient id="linearGradient3783" x1="0" x2="720" y1="252.362" y2="892.362" gradientUnits="userSpaceOnUse" xlink:href="#linearGradient3771"/><filter id="filter3913"><feGaussianBlur id="feGaussianBlur3915" stdDeviation="13.92"/></filter></defs><metadata id="metadata7"/><g id="layer1"><path id="path3813" d="m 840,572.36218 a 480,480 0 1 1 -960,0 480,480 0 1 1 960,0 z" style="fill:#2b2b2b;fill-opacity:1;fill-rule:evenodd;stroke:none;filter:url(#filter3913)" transform="translate(20,20)"/><path style="fill:url(#linearGradient3783);fill-opacity:1;fill-rule:evenodd;stroke:#ebebeb;stroke-width:30;stroke-linecap:butt;stroke-linejoin:miter;stroke-miterlimit:4;stroke-opacity:1;stroke-dasharray:none" id="path2989" d="m 840,572.36218 a 480,480 0 1 1 -960,0 480,480 0 1 1 960,0 z"/><path style="fill:#ebebeb;fill-opacity:1;stroke:#fff;stroke-opacity:1" id="path2987" d="m 200,292.36218 0,260 -160,0 c -20,0 -20,20 0,40 l 320,360 320,-360 c 20,-20 20,-40 0,-40 l -160,0 0,-260 c 0,-40 -20,-60 -60,-60 l -200,0 c -40,0 -60,20 -60,60 z"/></g></svg>